# xmcd CD database file
#
# Track frame offsets:
#	150
#	17604
#	39454
#	64283
#	80461
#	100733
#	117318
#	140681
#	151734
#	172487
#	201717
#	220733
#	242946
#	256923
#
# Disc length: 3797 seconds
#
# Revision: 1
# Processed by: cddbd v1.5PL3 Copyright (c) Steve Scherf et al.
# Submitted via: CDex 1.51
#
DISCID=cd0ed30e
DTITLE=Blok Note Big Band - Mezzo Jazz
DYEAR=1900
DGENRE=Jazz
TTITLE0=Magic Flea
TTITLE1=Rythm Of Our World
TTITLE2=Bellavia
TTITLE3=I've Got You Under My Skin
TTITLE4=Cabeza De Carne
TTITLE5=Deedle's Blues
TTITLE6=Closely Dancing
TTITLE7=On The Street Where You Live
TTITLE8=Mambo Caliente
TTITLE9=Sing, Sang, Sung
TTITLE10=Over The Rainbow
TTITLE11=Los Brujos De Cisano
TTITLE12=Take The A Train
TTITLE13=Sussudio
EXTD=
EXTT0=
EXTT1=
EXTT2=
EXTT3=
EXTT4=
EXTT5=
EXTT6=
EXTT7=
EXTT8=
EXTT9=
EXTT10=
EXTT11=
EXTT12=
EXTT13=
PLAYORDER=
